<?xml version="1.0" encoding="UTF-8" standalone="no"?>
<svg width="4px" height="16px" viewBox="0 0 4 16" version="1.1" xmlns="http://www.w3.org/2000/svg" xmlns:xlink="http://www.w3.org/1999/xlink">
    <!-- Generator: Sketch 39.1 (31720) - http://www.bohemiancoding.com/sketch -->
    <title>more-vert</title>
    <desc>Created with Sketch.</desc>
    <defs></defs>
    <g id="Layouts" stroke="none" stroke-width="1" fill="none" fill-rule="evenodd" fill-opacity="0.87">
        <g id="Mobile---After-1st-Fold" transform="translate(-346.000000, -21.000000)" fill="#FFFFFF">
            <g id="Profile" transform="translate(308.000000, 14.000000)">
                <path d="M40,23 C41.1045695,23 42,22.1045695 42,21 C42,19.8954305 41.1045695,19 40,19 C38.8954305,19 38,19.8954305 38,21 C38,22.1045695 38.8954305,23 40,23 Z M40,17 C41.1045695,17 42,16.1045695 42,15 C42,13.8954305 41.1045695,13 40,13 C38.8954305,13 38,13.8954305 38,15 C38,16.1045695 38.8954305,17 40,17 Z M40,11 C41.1045695,11 42,10.1045695 42,9 C42,7.8954305 41.1045695,7 40,7 C38.8954305,7 38,7.8954305 38,9 C38,10.1045695 38.8954305,11 40,11 Z" id="more-vert"></path>
            </g>
        </g>
    </g>
</svg>