<?xml version="1.0" encoding="UTF-8" standalone="no"?>
<svg width="20px" height="20px" viewBox="0 0 20 20" version="1.1" xmlns="http://www.w3.org/2000/svg" xmlns:xlink="http://www.w3.org/1999/xlink">
    <!-- Generator: Sketch 39.1 (31720) - http://www.bohemiancoding.com/sketch -->
    <title>Shape</title>
    <desc>Created with Sketch.</desc>
    <defs></defs>
    <g id="Layouts" stroke="none" stroke-width="1" fill="none" fill-rule="evenodd">
        <g id="Mobile---Navigation" transform="translate(-269.000000, -15.000000)" fill="#7D7D7D">
            <g id="ic_cancel" transform="translate(263.000000, 14.000000)">
                <g id="Icon-24px">
                    <path d="M16,1 C10.47,1 6,5.47 6,11 C6,16.53 10.47,21 16,21 C21.53,21 26,16.53 26,11 C26,5.47 21.53,1 16,1 L16,1 Z M21,14.59 L19.59,16 L16,12.41 L12.41,16 L11,14.59 L14.59,11 L11,7.41 L12.41,6 L16,9.59 L19.59,6 L21,7.41 L17.41,11 L21,14.59 L21,14.59 Z" id="Shape"></path>
                </g>
            </g>
        </g>
    </g>
</svg>