<?xml version="1.0" encoding="UTF-8" standalone="no"?>
<svg width="18px" height="18px" viewBox="0 0 18 18" version="1.1" xmlns="http://www.w3.org/2000/svg" xmlns:xlink="http://www.w3.org/1999/xlink">
    <!-- Generator: Sketch 39.1 (31720) - http://www.bohemiancoding.com/sketch -->
    <title>search</title>
    <desc>Created with Sketch.</desc>
    <defs></defs>
    <g id="Layouts" stroke="none" stroke-width="1" fill="none" fill-rule="evenodd" fill-opacity="0.87">
        <g id="Desktop" transform="translate(-632.000000, -49.000000)" fill="#FFFFFF">
            <g id="Header" transform="translate(632.000000, 39.000000)">
                <path d="M12.5,21 L11.7,21 L11.4,20.7 C12.4,19.6 13,18.1 13,16.5 C13,12.9 10.1,10 6.5,10 C2.9,10 0,12.9 0,16.5 C0,20.1 2.9,23 6.5,23 C8.1,23 9.6,22.4 10.7,21.4 L11,21.7 L11,22.5 L16,27.5 L17.5,26 L12.5,21 L12.5,21 Z M6.5,21 C4,21 2,19 2,16.5 C2,14 4,12 6.5,12 C9,12 11,14 11,16.5 C11,19 9,21 6.5,21 L6.5,21 Z" id="search"></path>
            </g>
        </g>
    </g>
</svg>