<?xml version="1.0" encoding="UTF-8" standalone="no"?>
<svg width="20px" height="20px" viewBox="0 0 20 20" version="1.1" xmlns="http://www.w3.org/2000/svg" xmlns:xlink="http://www.w3.org/1999/xlink">
    <!-- Generator: Sketch 39.1 (31720) - http://www.bohemiancoding.com/sketch -->
    <title>Shape</title>
    <desc>Created with Sketch.</desc>
    <defs></defs>
    <g id="Layouts" stroke="none" stroke-width="1" fill="none" fill-rule="evenodd">
        <g id="Desktop---Expanded-Accordian" transform="translate(-1056.000000, -1257.000000)" fill="#7D7D7D">
            <g id="ic_collections" transform="translate(1054.000000, 1255.000000)">
                <g id="Icon-24px">
                    <path d="M22,16 L22,4 C22,2.9 21.1,2 20,2 L8,2 C6.9,2 6,2.9 6,4 L6,16 C6,17.1 6.9,18 8,18 L20,18 C21.1,18 22,17.1 22,16 L22,16 Z M11,12 L13.03,14.71 L16,11 L20,16 L8,16 L11,12 L11,12 Z M2,6 L2,20 C2,21.1 2.9,22 4,22 L18,22 L18,20 L4,20 L4,6 L2,6 L2,6 Z" id="Shape"></path>
                </g>
            </g>
        </g>
    </g>
</svg>