<?xml version="1.0" encoding="UTF-8" standalone="no"?>
<svg width="4px" height="16px" viewBox="0 0 4 16" version="1.1" xmlns="http://www.w3.org/2000/svg" xmlns:xlink="http://www.w3.org/1999/xlink">
    <!-- Generator: Sketch 39.1 (31720) - http://www.bohemiancoding.com/sketch -->
    <title>more-vert</title>
    <desc>Created with Sketch.</desc>
    <defs></defs>
    <g id="Layouts" stroke="none" stroke-width="1" fill="none" fill-rule="evenodd">
        <g id="Desktop" transform="translate(-1076.000000, -1011.000000)" fill="#7D7D7D">
            <g id="Items" transform="translate(259.000000, 554.000000)">
                <g id="Expandable-Card-Copy-2" transform="translate(0.000000, 439.000000)">
                    <path d="M819,34 C820.104569,34 821,33.1045695 821,32 C821,30.8954305 820.104569,30 819,30 C817.895431,30 817,30.8954305 817,32 C817,33.1045695 817.895431,34 819,34 Z M819,28 C820.104569,28 821,27.1045695 821,26 C821,24.8954305 820.104569,24 819,24 C817.895431,24 817,24.8954305 817,26 C817,27.1045695 817.895431,28 819,28 Z M819,22 C820.104569,22 821,21.1045695 821,20 C821,18.8954305 820.104569,18 819,18 C817.895431,18 817,18.8954305 817,20 C817,21.1045695 817.895431,22 819,22 Z" id="more-vert"></path>
                </g>
            </g>
        </g>
    </g>
</svg>