<?xml version="1.0" encoding="UTF-8" standalone="no"?>
<svg width="22px" height="20px" viewBox="0 0 22 20" version="1.1" xmlns="http://www.w3.org/2000/svg" xmlns:xlink="http://www.w3.org/1999/xlink">
    <!-- Generator: Sketch 39.1 (31720) - http://www.bohemiancoding.com/sketch -->
    <title>Tower</title>
    <desc>Created with Sketch.</desc>
    <defs></defs>
    <g id="Layouts" stroke="none" stroke-width="1" fill="none" fill-rule="evenodd">
        <g id="Desktop" transform="translate(-719.000000, -353.000000)" fill="#FFFFFF">
            <g id="card" transform="translate(259.000000, 74.000000)">
                <g id="First-Card" transform="translate(49.000000, 162.000000)">
                    <g id="Group-Info" transform="translate(0.000000, 115.000000)">
                        <g id="Type" transform="translate(411.000000, 2.000000)">
                            <g id="Tower">
                                <g id="1471667959_radio-tower">
                                    <path d="M6.49234049,7.88806383 C6.82808919,7.54112766 6.82808919,6.97889362 6.49234049,6.63195745 C6.05813965,6.18268085 5.84396973,5.60180851 5.84265788,5.01229787 C5.84396973,4.42144681 6.05811849,3.84125532 6.49234049,3.39131915 C6.82808919,3.0437234 6.82808919,2.48144681 6.49234049,2.13453191 C6.32446615,1.96040426 6.10572591,1.8733617 5.88495443,1.8733617 C5.66551595,1.8733617 5.44476563,1.95908511 5.27689128,2.13321277 C4.50954427,2.92676596 4.1209196,3.97221277 4.1222526,5.01229787 C4.12094076,6.05042553 4.50956543,7.09585106 5.27689128,7.88806383 C5.61263997,8.235 6.1565918,8.235 6.49234049,7.88806383 L6.49234049,7.88806383 Z M3.15463704,0.279617021 C2.98280599,0.102829787 2.75938965,0.0144468085 2.53468262,0.0144468085 C2.31128743,0.0144468085 2.08655924,0.102829787 1.9160612,0.279617021 C0.651692708,1.58491489 0.0158902995,3.30093617 0.0172021484,5.01229787 C0.0158902995,6.72168085 0.651692708,8.44102128 1.91474935,9.745 C2.25712077,10.0985745 2.81095378,10.0985745 3.1533252,9.745 C3.49436361,9.39208511 3.49436361,8.81919149 3.1533252,8.46697872 C2.22868327,7.50995745 1.76868978,6.26578723 1.76868978,5.01234043 C1.76868978,3.75889362 2.22868327,2.51342553 3.1533252,1.55770213 C3.49436361,1.20342553 3.49436361,0.630531915 3.15463704,0.279617021 L3.15463704,0.279617021 Z M10.8551481,7.23078723 C12.0686296,7.23078723 13.054738,6.23985106 13.054738,5.01895745 C13.054738,3.79806383 12.0686296,2.80714894 10.8551481,2.80714894 C9.6410319,2.80714894 8.65555827,3.79806383 8.65555827,5.01895745 C8.65557943,6.23985106 9.6410319,7.23078723 10.8551481,7.23078723 L10.8551481,7.23078723 Z M19.7526156,0.292914894 C19.4102441,-0.0606595745 18.8564323,-0.0606595745 18.5153516,0.292914894 C18.1729801,0.645829787 18.1729801,1.2187234 18.5153516,1.57095745 C19.4393164,2.52665957 19.8993311,3.77214894 19.8993311,5.02559574 C19.8993311,6.2777234 19.4379622,7.52319149 18.5139974,8.47891489 C18.1729801,8.83248936 18.1729801,9.40604255 18.5153092,9.75695745 C18.6858285,9.93374468 18.9092025,10.0221277 19.1339307,10.0221277 C19.3573258,10.0221277 19.5820329,9.93374468 19.7525309,9.75695745 C21.0162646,8.45297872 21.6520459,6.7336383 21.649401,5.02425532 C21.6521305,3.31621277 21.0163281,1.59687234 19.7526156,0.292914894 L19.7526156,0.292914894 Z M10.8604378,8.99729787 L10.8604378,8.99729787 C10.2999609,8.99861702 9.7381722,8.8597234 9.2292806,8.58391489 L4.97353678,19.9912766 L6.98805013,19.9912766 L8.14795736,18.6301489 L13.5623177,18.6301489 L14.7044092,19.9912766 L16.7202555,19.9912766 L12.4651888,8.58657447 C11.9628776,8.85840426 11.4129801,8.99729787 10.8604378,8.99729787 L10.8604378,8.99729787 Z M10.8472135,9.64929787 L12.2087435,14.5468085 L9.50157389,14.5468085 L10.8472135,9.64929787 L10.8472135,9.64929787 Z M8.14797852,17.2690426 L9.50159505,15.9079149 L12.2087435,15.9079149 L13.56236,17.2690426 L8.14797852,17.2690426 L8.14797852,17.2690426 Z M15.1750033,2.14982979 C14.8392546,2.49676596 14.8392546,3.059 15.1750033,3.40593617 C15.6085693,3.85521277 15.8226969,4.43808511 15.8240299,5.02559574 C15.8227181,5.61644681 15.6085693,6.19797872 15.1750033,6.64659574 C14.8392546,6.99417021 14.8392546,7.55644681 15.1750033,7.9033617 C15.3415446,8.07748936 15.5609831,8.16321277 15.7830452,8.16321277 C16.0011719,8.16321277 16.221901,8.07748936 16.3897754,7.9033617 C17.1577995,7.11114894 17.5464242,6.0643617 17.5437793,5.02559574 C17.5464242,3.98746809 17.1590902,2.94204255 16.3897754,2.14982979 C16.0553597,1.80289362 15.510752,1.80289362 15.1750033,2.14982979 L15.1750033,2.14982979 Z" id="Shape"></path>
                                </g>
                            </g>
                        </g>
                    </g>
                </g>
            </g>
        </g>
    </g>
</svg>