<?xml version="1.0" encoding="UTF-8" standalone="no"?>
<svg width="17px" height="13px" viewBox="0 0 17 13" version="1.1" xmlns="http://www.w3.org/2000/svg" xmlns:xlink="http://www.w3.org/1999/xlink">
    <!-- Generator: Sketch 39.1 (31720) - http://www.bohemiancoding.com/sketch -->
    <title>Imported Layers</title>
    <desc>Created with Sketch.</desc>
    <defs></defs>
    <g id="Layouts" stroke="none" stroke-width="1" fill="none" fill-rule="evenodd">
        <g id="Desktop" transform="translate(-1068.000000, -301.000000)" fill="#FFFFFF">
            <g id="card" transform="translate(259.000000, 74.000000)">
                <g id="Weather-Summary" transform="translate(745.000000, 195.000000)">
                    <g id="Group-4">
                        <g id="chancesleet" transform="translate(62.000000, 28.000000)">
                            <g id="Imported-Layers" transform="translate(2.310000, 4.200000)">
                                <path d="M12.8073731,2.93915023 C12.5670338,2.93915023 12.3272902,2.96506814 12.0929073,3.01630814 C11.3438945,1.26431721 9.595404,0.0956281395 7.70396073,0.0956281395 C5.343156,0.0956281395 3.38023636,1.77463186 2.98949891,4.10664767 C2.98384036,4.10634977 2.97818182,4.10634977 2.97282109,4.10634977 C1.42922945,4.10634977 0.173330182,5.37483767 0.173330182,6.93348698 C0.173330182,8.49183837 1.42922945,9.75973047 2.97282109,9.75973047 L12.8073731,9.75973047 C14.6690345,9.75973047 16.1837378,8.22968023 16.1837378,6.3495893 C16.1837378,4.46920047 14.6690345,2.93915023 12.8073731,2.93915023 L12.8073731,2.93915023 Z M15.5047124,6.3495893 C15.5047124,7.85312581 14.2946771,9.07633186 12.8073731,9.07633186 L2.97282109,9.07633186 C1.80358691,9.07633186 0.852355636,8.11498605 0.852355636,6.93348698 C0.852355636,5.75139209 1.80358691,4.78974837 2.97282109,4.78974837 C3.05084945,4.78974837 3.13602545,4.79570651 3.24115527,4.80881442 L3.58602873,4.85201093 L3.62087345,4.50405558 C3.83381345,2.38027674 5.58915382,0.779026744 7.70396073,0.779026744 C9.43368873,0.779026744 10.9862149,1.88813442 11.567556,3.53883698 L11.6771531,3.85044767 L11.99016,3.75005302 C12.2558138,3.66544744 12.5307,3.62254884 12.8073731,3.62254884 C14.2946771,3.62254884 15.5047124,4.84575488 15.5047124,6.3495893 L15.5047124,6.3495893 Z" id="Fill-1"></path>
                                <path d="M9.69793855,11.9277981 C9.69793855,12.2834991 9.40994836,12.5715751 9.05465127,12.5715751 C8.69935418,12.5715751 8.41106618,12.2834991 8.41106618,11.9277981 C8.41106618,11.5723951 8.69935418,11.2843191 9.05465127,11.2843191 C9.40994836,11.2843191 9.69793855,11.5723951 9.69793855,11.9277981" id="Fill-2"></path>
                                <path d="M13.9352105,11.7142981 C13.9352105,12.0699991 13.6469225,12.3580751 13.2916255,12.3580751 C12.9363284,12.3580751 12.6480404,12.0699991 12.6480404,11.7142981 C12.6480404,11.3588951 12.9363284,11.0708191 13.2916255,11.0708191 C13.6469225,11.0708191 13.9352105,11.3588951 13.9352105,11.7142981" id="Fill-3"></path>
                                <path d="M5.44828582,11.993437 C5.44828582,12.3491379 5.16029564,12.637214 4.80499855,12.637214 C4.44940364,12.637214 4.16141345,12.3491379 4.16141345,11.993437 C4.16141345,11.638034 4.44940364,11.3499579 4.80499855,11.3499579 C5.16029564,11.3499579 5.44828582,11.638034 5.44828582,11.993437" id="Fill-4"></path>
                            </g>
                        </g>
                    </g>
                </g>
            </g>
        </g>
    </g>
</svg>