<?xml version="1.0" encoding="UTF-8" standalone="no"?>
<svg width="22px" height="16px" viewBox="0 0 22 16" version="1.1" xmlns="http://www.w3.org/2000/svg" xmlns:xlink="http://www.w3.org/1999/xlink">
    <!-- Generator: Sketch 39.1 (31720) - http://www.bohemiancoding.com/sketch -->
    <title>Imported Layers</title>
    <desc>Created with Sketch.</desc>
    <defs></defs>
    <g id="Layouts" stroke="none" stroke-width="1" fill="none" fill-rule="evenodd">
        <g id="Desktop" transform="translate(-1064.000000, -272.000000)" fill="#FFFFFF">
            <g id="card" transform="translate(259.000000, 74.000000)">
                <g id="Weather-Summary" transform="translate(745.000000, 195.000000)">
                    <g id="Group-4">
                        <g id="Imported-Layers" transform="translate(60.720000, 3.080000)">
                            <path d="M17.7189517,8.91346728 C17.4917297,8.91346728 17.2648717,8.93792875 17.0431117,8.98648659 C16.333771,7.32456708 14.6791283,6.21576884 12.8886621,6.21576884 C10.6543117,6.21576884 8.79648,7.80868511 8.42651586,10.0208051 L8.41085793,10.0208051 C6.94993655,10.0208051 5.76139034,11.2237983 5.76139034,12.7028044 C5.76139034,14.1810804 6.94993655,15.3837084 8.41085793,15.3837084 L17.7189517,15.3837084 C19.4810152,15.3837084 20.9146262,13.9324496 20.9146262,12.1485879 C20.9146262,10.3647261 19.4810152,8.91346728 17.7189517,8.91346728 L17.7189517,8.91346728 Z M20.2719228,12.1485879 C20.2719228,13.5750201 19.126709,14.735662 17.7189517,14.735662 L8.41085793,14.735662 C7.30424276,14.735662 6.40409379,13.8236508 6.40409379,12.7028044 C6.40409379,11.5812278 7.30424276,10.6688515 8.41085793,10.6688515 C8.48477793,10.6688515 8.56561655,10.6746931 8.66502621,10.6871063 L8.99165793,10.7279972 L9.02443034,10.3979499 C9.22579862,8.38334709 10.88736,6.86418032 12.8886621,6.86418032 C14.5258262,6.86418032 15.9954869,7.9160235 16.5456993,9.48228772 L16.6494786,9.77801592 L16.9455228,9.68272572 C17.1971421,9.60240448 17.4571366,9.56187876 17.7189517,9.56187876 C19.126709,9.56187876 20.2719228,10.7221556 20.2719228,12.1485879 L20.2719228,12.1485879 Z" id="Fill-1"></path>
                            <path d="M4.61435586,4.77290726 C4.74144,4.91602511 4.96210759,4.92916858 5.10484966,4.80211498 C5.24795586,4.67469628 5.26106483,4.45344777 5.13398069,4.31032992 L3.09225931,2.00474518 C2.96553931,1.86162733 2.74487172,1.84848386 2.60176552,1.97590255 C2.45902345,2.10295615 2.44591448,2.32420467 2.57263448,2.46768761 L4.61435586,4.77290726" id="Fill-2"></path>
                            <path d="M4.37038345,10.4746202 L2.11928276,12.5746555 C1.97945379,12.7053601 1.97144276,12.9266086 2.10144,13.0671708 C2.23180138,13.2073679 2.4528331,13.2154 2.59266207,13.0846954 L4.84376276,10.98466 C4.98359172,10.8543206 4.99160276,10.632707 4.86160552,10.4925099 C4.73124414,10.3523128 4.51021241,10.3442807 4.37038345,10.4746202" id="Fill-3"></path>
                            <path d="M13.4101076,2.46586213 C13.2797462,2.32566505 13.0587145,2.31763293 12.9188855,2.4479724 L10.6677848,4.54800778 C10.5279559,4.67871235 10.5199448,4.89996086 10.6503062,5.04052303 C10.7803034,5.18072011 11.0013352,5.18875223 11.1411641,5.05804767 L13.3922648,2.95801229 C13.5320938,2.82767282 13.5401048,2.60605921 13.4101076,2.46586213" id="Fill-4"></path>
                            <path d="M8.08968828,3.82402131 C8.28013241,3.83899027 8.448,3.69477713 8.46292966,3.50383163 L8.70289655,0.430448838 C8.71782621,0.23950334 8.57399172,0.0708287316 8.38354759,0.0558597729 C8.19310345,0.0408908141 8.02487172,0.185103953 8.00994207,0.376049451 L7.77033931,3.44943225 C7.75540966,3.64074284 7.89888,3.80905235 8.08968828,3.82402131" id="Fill-5"></path>
                            <path d="M3.84311172,7.44504894 L3.84311172,7.44504894 C3.86059034,7.25446854 3.71930483,7.08396845 3.52922483,7.06607872 L0.467553103,6.78057321 C0.277108966,6.76304858 0.107056552,6.90434094 0.089577931,7.09528644 C0.0717351724,7.28623194 0.21302069,7.45673203 0.40310069,7.47425667 L3.46477241,7.75976217 C3.65521655,7.7776519 3.82526897,7.63599444 3.84311172,7.44504894" id="Fill-6"></path>
                            <path d="M5.16019862,7.55713358 C5.28655448,6.1456703 6.53445517,5.10039887 7.94221241,5.22708737 C8.65337379,5.29134437 9.27058759,5.64256725 9.69153103,6.1562581 C9.8448331,6.00510813 10.0119724,5.86126009 10.1933131,5.72909513 C9.66422069,5.08798558 8.89079172,4.64986972 8.00083862,4.56991357 C6.23185655,4.41073148 4.66351448,5.72434888 4.50475034,7.49798794 C4.40206345,8.64439112 4.91476966,9.70390132 5.76648828,10.3548685 C5.86262069,10.1891146 5.99225379,10.0080268 6.16449103,9.83058983 C5.48683034,9.31251782 5.07863172,8.46914478 5.16019862,7.55713358" id="Fill-7"></path>
                        </g>
                    </g>
                </g>
            </g>
        </g>
    </g>
</svg>