<?xml version="1.0" encoding="UTF-8" standalone="no"?>
<svg width="69px" height="49px" viewBox="0 0 69 49" version="1.1" xmlns="http://www.w3.org/2000/svg" xmlns:xlink="http://www.w3.org/1999/xlink">
    <!-- Generator: Sketch 39.1 (31720) - http://www.bohemiancoding.com/sketch -->
    <title>Imported Layers Copy 3</title>
    <desc>Created with Sketch.</desc>
    <defs></defs>
    <g id="Layouts" stroke="none" stroke-width="1" fill="none" fill-rule="evenodd">
        <g id="Desktop" transform="translate(-1008.000000, -116.000000)" fill="#FFFFFF">
            <g id="card" transform="translate(259.000000, 74.000000)">
                <g id="Temp" transform="translate(746.000000, 33.000000)">
                    <g id="mostlycloudy" transform="translate(2.000000, 0.000000)">
                        <g id="Imported-Layers-Copy-3" transform="translate(0.693069, 9.100000)">
                            <path d="M58.1750825,26.418 C57.4080858,26.418 56.6422442,26.502 55.8937294,26.6665 C53.50033,21.0163333 47.9165017,17.248 41.8740924,17.248 C34.3334983,17.248 28.0635314,22.6625 26.8160066,30.1828333 L26.7628713,30.1828333 C21.8328383,30.1828333 17.8211221,34.2731667 17.8211221,39.2991667 C17.8211221,44.3251667 21.8328383,48.4143333 26.7628713,48.4143333 L58.1750825,48.4143333 C64.1216172,48.4143333 68.9592409,43.4805 68.9592409,37.4161667 C68.9592409,31.3518333 64.1216172,26.418 58.1750825,26.418 L58.1750825,26.418 Z M66.789934,37.4161667 C66.789934,42.266 62.9249175,46.2105 58.1750825,46.2105 L26.7628713,46.2105 C23.0283828,46.2105 19.990429,43.1106667 19.990429,39.2991667 C19.990429,35.4876667 23.0283828,32.3855 26.7628713,32.3855 C27.0123762,32.3855 27.2838284,32.4053333 27.619967,32.4473333 L28.7219472,32.5873333 L28.8328383,31.465 C29.5132013,24.6155 35.120132,19.4506667 41.8740924,19.4506667 C47.3990099,19.4506667 52.3590759,23.0276667 54.2141914,28.3523333 L54.5653465,29.3568333 L55.5645215,29.0336667 C56.4135314,28.7606667 57.2914191,28.6218333 58.1750825,28.6218333 C62.9249175,28.6218333 66.789934,32.5663333 66.789934,37.4161667 L66.789934,37.4161667 Z" id="Fill-1"></path>
                            <path d="M14.2009901,15.5878333 C14.5983498,16.0265 15.2787129,16.0568333 15.7130363,15.6555 C16.1473597,15.253 16.1773927,14.5658333 15.780033,14.1271667 L9.3830033,7.07116667 C8.98564356,6.6325 8.30412541,6.60216667 7.8709571,7.00466667 C7.43663366,7.406 7.40660066,8.09316667 7.8039604,8.53183333 L14.2009901,15.5878333" id="Fill-2"></path>
                            <path d="M13.7169967,33.292 L6.8810231,39.9151667 C6.45594059,40.327 6.44092409,41.0141667 6.84867987,41.4435 C7.25643564,41.8728333 7.9379538,41.8868333 8.3630363,41.475 L15.1990099,34.853 C15.6229373,34.4411667 15.6379538,33.7528333 15.230198,33.3235 C14.8224422,32.8953333 14.1409241,32.8801667 13.7169967,33.292" id="Fill-3"></path>
                            <path d="M24.860396,12.4786667 C25.4483498,12.516 25.9589109,12.061 25.9958746,11.4683333 L26.5907591,1.91916667 C26.6277228,1.32533333 26.1772277,0.809666667 25.590429,0.772333333 C25.0024752,0.735 24.4919142,1.19 24.4549505,1.78383333 L23.860066,11.3318333 C23.8231023,11.9256667 24.2735974,12.4413333 24.860396,12.4786667" id="Fill-4"></path>
                            <path d="M11.94967,23.9166667 L11.94967,23.9166667 C11.9958746,23.324 11.5523102,22.8013333 10.9655116,22.7546667 L1.52128713,22.015 C0.934488449,21.9683333 0.4169967,22.4163333 0.370792079,23.009 C0.325742574,23.6016667 0.768151815,24.1243333 1.35610561,24.171 L10.80033,24.9106667 C11.3871287,24.9573333 11.9046205,24.5093333 11.94967,23.9166667" id="Fill-5"></path>
                            <path d="M28.6584158,16.1886667 C27.450165,15.5143333 26.0882838,14.9076667 24.6235974,14.798 C19.1668317,14.3873333 14.3962046,18.5383333 13.9907591,24.0496667 C13.7285479,27.6103333 15.3572607,30.8746667 18.0105611,32.8545 C18.300495,32.3353333 18.6909241,31.7671667 19.2118812,31.2083333 C17.10033,29.6321667 15.8031353,27.0351667 16.0122112,24.2013333 C16.3356436,19.8158333 20.1313531,16.513 24.4722772,16.8396667 C25.3235974,16.9038333 25.0925743,16.6833333 25.8410891,16.9948333 L26.1310231,17.1056667 C26.1310231,17.1056667 27.0412541,16.1618333 28.6584158,16.1886667" id="Fill-6"></path>
                            <path d="M63.4805281,23.2225 C63.4805281,18.3668333 59.6074257,14.4165 54.8460396,14.4165 C54.2315182,14.4165 53.6181518,14.483 53.0186469,14.6148333 C51.1034653,10.0905 46.6320132,7.07233333 41.7932343,7.07233333 C35.7566007,7.07233333 30.7353135,11.4088333 29.7361386,17.43 L29.6933993,17.43 C25.7463696,17.43 22.5339934,20.7048333 22.5339934,24.7298333 C22.5339934,25.9315 22.8285479,27.0596667 23.3356436,28.0583333 C23.7410891,27.8553333 24.3094059,27.6523333 25.0417492,27.5356667 C24.560066,26.712 24.2712871,25.7576667 24.2712871,24.7298333 C24.2712871,21.6778333 26.7039604,19.194 29.6933993,19.194 C29.8932343,19.194 30.1115512,19.2103333 30.379538,19.2441667 L31.2620462,19.355 L31.3509901,18.4566667 C31.8962046,12.9733333 36.3849835,8.8375 41.7932343,8.8375 C46.2173267,8.8375 50.1886139,11.7016667 51.6752475,15.9646667 L51.9559406,16.7696667 L52.7564356,16.5106667 C53.4356436,16.2913333 54.1379538,16.1805 54.8460396,16.1805 C58.649835,16.1805 61.7443894,19.3398333 61.7443894,23.2225 C61.7443894,23.618 61.7062706,24.0041667 61.6438944,24.3821667 C62.1209571,24.4953333 62.7181518,24.6925 63.289934,25.025 C63.410066,24.4428333 63.4805281,23.8408333 63.4805281,23.2225" id="Fill-7"></path>
                        </g>
                    </g>
                </g>
            </g>
        </g>
    </g>
</svg>