<?xml version="1.0" encoding="UTF-8" standalone="no"?>
<svg width="17px" height="17px" viewBox="0 0 17 17" version="1.1" xmlns="http://www.w3.org/2000/svg" xmlns:xlink="http://www.w3.org/1999/xlink">
    <!-- Generator: Sketch 39.1 (31720) - http://www.bohemiancoding.com/sketch -->
    <title>Imported Layers</title>
    <desc>Created with Sketch.</desc>
    <defs></defs>
    <g id="Layouts" stroke="none" stroke-width="1" fill="none" fill-rule="evenodd">
        <g id="Desktop" transform="translate(-1068.000000, -324.000000)" fill="#FFFFFF">
            <g id="card" transform="translate(259.000000, 74.000000)">
                <g id="Weather-Summary" transform="translate(745.000000, 195.000000)">
                    <g id="Group-4">
                        <g id="rain" transform="translate(62.000000, 53.000000)">
                            <g id="Imported-Layers" transform="translate(2.100000, 2.730000)">
                                <path d="M13.0923692,3.08635714 C12.8436,3.08635714 12.5954769,3.11271429 12.3525231,3.16542857 C11.5768154,1.36125 9.76661538,0.157821429 7.8078,0.157821429 C5.36372308,0.157821429 3.33092308,1.88678571 2.92643077,4.2885 C2.92061538,4.28817857 2.9148,4.28817857 2.90930769,4.28817857 C1.31104615,4.28817857 0.0106615385,5.59446429 0.0106615385,7.19967857 C0.0106615385,8.80457143 1.31104615,10.1102143 2.90930769,10.1102143 L13.0923692,10.1102143 C15.0198462,10.1102143 16.5883846,8.53457143 16.5883846,6.59828571 C16.5883846,4.66167857 15.0198462,3.08635714 13.0923692,3.08635714 L13.0923692,3.08635714 Z M15.8850462,6.59828571 C15.8850462,8.14692857 14.6324769,9.40660714 13.0923692,9.40660714 L2.90930769,9.40660714 C1.69873846,9.40660714 0.713676923,8.41660714 0.713676923,7.19967857 C0.713676923,5.98210714 1.69873846,4.99178571 2.90930769,4.99178571 C2.99007692,4.99178571 3.07827692,4.99821429 3.18715385,5.01139286 L3.54415385,5.05607143 L3.58033846,4.69767857 C3.80067692,2.51067857 5.61830769,0.861428571 7.8078,0.861428571 C9.59926154,0.861428571 11.2068923,2.00378571 11.8084615,3.70382143 L11.9221846,4.02460714 L12.2462308,3.92142857 C12.5211692,3.834 12.8058,3.78996429 13.0923692,3.78996429 C14.6324769,3.78996429 15.8850462,5.04964286 15.8850462,6.59828571 L15.8850462,6.59828571 Z" id="Fill-1"></path>
                                <path d="M2.95841538,12.0471429 C3.25435385,12.5848929 3.55061538,13.1226429 3.84655385,13.6603929 C4.05267692,14.0345357 4.6284,13.7005714 4.42195385,13.3257857 C4.12569231,12.7880357 3.82975385,12.2502857 3.53349231,11.7125357 C3.32736923,11.3383929 2.75196923,11.6726786 2.95841538,12.0471429" id="Fill-2"></path>
                                <path d="M6.25864615,12.0471429 C6.55490769,12.5848929 6.85116923,13.1226429 7.14710769,13.6603929 C7.35323077,14.0345357 7.92895385,13.7005714 7.72250769,13.3257857 C7.42624615,12.7880357 7.13030769,12.2502857 6.83404615,11.7125357 C6.62792308,11.3383929 6.05252308,11.6726786 6.25864615,12.0471429" id="Fill-3"></path>
                                <path d="M9.72784615,12.0471429 C10.0241077,12.5848929 10.3200462,13.1226429 10.6163077,13.6603929 C10.8224308,14.0345357 11.3978308,13.7005714 11.1917077,13.3257857 C10.8954462,12.7880357 10.5991846,12.2502857 10.3032462,11.7125357 C10.0971231,11.3383929 9.5214,11.6726786 9.72784615,12.0471429" id="Fill-4"></path>
                                <path d="M13.0804154,12.0471429 C13.3766769,12.5848929 13.6726154,13.1226429 13.9688769,13.6603929 C14.175,14.0345357 14.7504,13.7005714 14.5442769,13.3257857 C14.2480154,12.7880357 13.9517538,12.2502857 13.6558154,11.7125357 C13.4496923,11.3383929 12.8739692,11.6726786 13.0804154,12.0471429" id="Fill-5"></path>
                                <path d="M5.67064615,13.9525714 C5.96658462,14.4903214 6.26284615,15.0280714 6.55878462,15.5658214 C6.76490769,15.9399643 7.34063077,15.606 7.13418462,15.2312143 C6.83824615,14.6934643 6.54198462,14.1557143 6.24572308,13.6179643 C6.03992308,13.2438214 5.4642,13.5777857 5.67064615,13.9525714" id="Fill-6"></path>
                                <path d="M8.97055385,13.9516071 C9.26681538,14.4893571 9.56275385,15.0271071 9.85901538,15.5648571 C10.0651385,15.9393214 10.6405385,15.6050357 10.4344154,15.23025 C10.1381538,14.6925 9.84189231,14.15475 9.54595385,13.617 C9.33983077,13.2428571 8.76410769,13.5771429 8.97055385,13.9516071" id="Fill-7"></path>
                                <path d="M12.3370154,13.8185357 C12.6329538,14.3562857 12.9292154,14.8940357 13.2251538,15.4317857 C13.4312769,15.8059286 14.007,15.4719643 13.8005538,15.0971786 C13.5042923,14.5594286 13.2083538,14.0216786 12.9120923,13.4839286 C12.7059692,13.1097857 12.1305692,13.44375 12.3370154,13.8185357" id="Fill-8"></path>
                            </g>
                        </g>
                    </g>
                </g>
            </g>
        </g>
    </g>
</svg>